<?xml version="1.0" encoding="UTF-8" standalone="no"?>
<!-- Created with Inkscape (http://www.inkscape.org/) -->

<svg xmlns:dc="http://purl.org/dc/elements/1.1/" xmlns:cc="http://creativecommons.org/ns#" xmlns:rdf="http://www.w3.org/1999/02/22-rdf-syntax-ns#" xmlns:svg="http://www.w3.org/2000/svg" xmlns="http://www.w3.org/2000/svg" xmlns:sodipodi="http://sodipodi.sourceforge.net/DTD/sodipodi-0.dtd" xmlns:inkscape="http://www.inkscape.org/namespaces/inkscape" id="svg2985" version="1.1" inkscape:version="0.48.5 r10040" width="1805.7985" height="901.15106" sodipodi:docname="Lifetime Movies vertical.svg">
  <metadata id="metadata2991">
    <rdf:RDF>
      <cc:Work rdf:about="">
        <dc:format>image/svg+xml</dc:format>
        <dc:type rdf:resource="http://purl.org/dc/dcmitype/StillImage" />
        <dc:title></dc:title>
      </cc:Work>
    </rdf:RDF>
  </metadata>
  <defs id="defs2989">
    <style id="style3000">.cls-1 {
        fill: #ef3749;
      }
      .cls-2 {
        fill: #fff;
      }
      .cls-3 {
        fill: none;
      }</style>
  </defs>
  <sodipodi:namedview pagecolor="#ffffff" bordercolor="#666666" borderopacity="1" objecttolerance="10" gridtolerance="10" guidetolerance="10" inkscape:pageopacity="0" inkscape:pageshadow="2" inkscape:window-width="1366" inkscape:window-height="706" id="namedview2987" showgrid="false" inkscape:zoom="0.29424395" inkscape:cx="1226.9548" inkscape:cy="-63.025907" inkscape:window-x="-8" inkscape:window-y="-8" inkscape:window-maximized="1" inkscape:current-layer="svg2985" showguides="true" inkscape:guide-bbox="true" fit-margin-top="0" fit-margin-left="0" fit-margin-right="0" fit-margin-bottom="0" />
  <g id="g3122" transform="translate(1.2043915,-0.29437206)">
    <g transform="matrix(0.7347835,0,0,0.73759016,6.7865311,8.3158066)" id="g3004">
      <title id="title3006">Layer 1</title>
      <path style="fill:white;stroke:black;stroke-width:21.73365211;stroke-opacity:1" inkscape:connector-curvature="0" id="path9" d="M 600.49017,1.9e-4 C 269.12021,-0.25981 0.2702,268.15018 2e-4,599.51019 c -0.27,331.35999 268.14,600.22001 599.50999,600.49001 331.37,0.2701 600.21991,-268.14998 600.48991,-599.50997 C 1200.2701,269.13025 931.85022,0.2702 600.49017,2.4e-4" class="cls-1" />
      <g style="fill:black" id="g3035">
        <polygon class="cls-2" points="122.58021,648.99018 122.69021,520.96021 122.69021,520.96021 92.060201,520.93018 91.930204,678.24018 192.66021,678.3202 192.6802,649.04017 " id="polygon11" style="fill:black" />
        <path style="fill:black" d="m 228.0202,521.06018 31.05,0 0,157.3 -31.05,0 z" id="rect13" inkscape:connector-curvature="0" />
        <polygon class="cls-2" points="395.8102,521.18018 296.42022,521.10016 296.29021,678.40021 296.29021,678.40021 327.13021,678.42017 327.1802,617.2002 388.20022,617.24018 388.2202,589.06019 326.99019,589.0102 327.02019,550.18018 395.79021,550.24018 " id="polygon15" style="fill:black" />
        <polygon class="cls-2" points="523.13021,586.0702 461.6802,586.02021 461.71019,550.0702 529.60018,550.13019 529.6202,521.29017 431.11019,521.21021 430.98021,678.5102 430.98021,678.5102 529.49019,678.59022 529.51021,649.74018 461.63021,649.69019 461.66021,613.30018 523.10018,613.35016 " id="polygon17" style="fill:black" />
        <polygon class="cls-2" points="612.57021,550.42017 612.47017,678.66016 643.3102,678.68018 643.42019,550.44019 693.1202,550.49018 693.14022,521.42017 562.91018,521.3202 562.89022,550.38019 562.89022,550.38019 " id="polygon19" style="fill:black" />
        <path style="fill:black" d="m 728.37018,521.46021 31.06,0 0,157.3 -31.06,0 z" id="rect21" inkscape:connector-curvature="0" />
        <polygon class="cls-2" points="826.02022,569.46021 871.19021,678.87018 896.70022,678.8902 942.0602,568.66016 941.98018,678.92017 972.13021,678.9502 972.26021,521.65021 930.5602,521.62018 884.3102,635.17017 884.3102,635.17017 837.15023,521.54017 796.77022,521.5102 796.65023,678.81019 825.9302,678.83021 " id="polygon23" style="fill:black" />
        <polygon class="cls-2" points="1040.0701,650.16016 1040.1002,613.77021 1101.5402,613.8202 1101.5603,586.54017 1040.1202,586.49018 1040.1502,550.55018 1108.0402,550.60016 1108.0402,550.60016 1108.0603,521.7602 1009.5402,521.68018 1009.4202,678.98017 1107.9303,679.06019 1107.9502,650.21021 " id="polygon25" style="fill:black" />
      </g>
      <g id="TM" />
    </g>
    <g style="fill:black" transform="matrix(16.261416,0,0,13.211779,-3341.3758,237.93819)" id="g3049">
      <g id="text3051" style="font-size:30px;font-style:normal;font-weight:bold;text-align:start;text-anchor:start;fill:black;font-family:Univers LT 49 LightUltraCn">
        <path inkscape:connector-curvature="0" id="path3063" style="font-size:30px;font-style:normal;font-weight:bold;text-align:start;text-anchor:start;fill:black;font-family:Univers LT 49 LightUltraCn" d="m 272.53998,24.114357 2.17621,-19.0008545 3.6145,0 0,21.8225095 -2.35016,0 0,-19.5895383 0.55115,0 -2.23481,19.5895383 -2.99377,0 -2.23572,-19.5895383 0.55664,0 0,19.5895383 -2.35016,0 0,-21.8225095 3.60993,0 2.17621,19.0008545 z" />
        <path inkscape:connector-curvature="0" id="path3065" style="font-size:30px;font-style:normal;font-weight:bold;text-align:start;text-anchor:start;fill:black;font-family:Univers LT 49 LightUltraCn" d="m 280.07103,23.230873 0,-14.4131469 c 0,-2.5872595 1.2445,-3.8808984 3.73352,-3.8809204 2.48961,2.2e-5 3.73442,1.2936609 3.73443,3.8809204 l 0,14.4131469 c -10e-6,2.587892 -1.24482,3.881836 -3.73443,3.881836 -2.48902,0 -3.73352,-1.293944 -3.73352,-3.881836 z m 2.58545,-14.3536376 0,14.2950436 c -10e-6,1.138309 0.38268,1.707461 1.14807,1.707459 0.76598,2e-6 1.14898,-0.56915 1.14898,-1.707459 l 0,-14.2950436 c 0,-1.1382865 -0.383,-1.7074387 -1.14898,-1.7074585 -0.76539,1.98e-5 -1.14808,0.569172 -1.14807,1.7074585 z" />
        <path sodipodi:nodetypes="cccccccc" inkscape:connector-curvature="0" id="path3067" style="font-size:30px;font-style:normal;font-weight:bold;text-align:start;text-anchor:start;fill:black;font-family:Univers LT 49 LightUltraCn" d="m 294.48315,5.1135025 2.55981,0 -2.5058,21.8225095 -3.40301,0 -2.50122,-21.8225095 2.55432,0 1.35835,16.6127315 z" />
        <path inkscape:connector-curvature="0" id="path3069" style="font-size:30px;font-style:normal;font-weight:bold;text-align:start;text-anchor:start;fill:black;font-family:Univers LT 49 LightUltraCn" d="m 298.30639,26.936012 0,-21.8225095 2.58545,0 0,21.8225095 z" />
        <path sodipodi:nodetypes="ccccccccccccc" inkscape:connector-curvature="0" id="path3071" style="font-size:30px;font-style:normal;font-weight:bold;text-align:start;text-anchor:start;fill:black;font-family:Univers LT 49 LightUltraCn" d="m 302.1479,26.936012 0,-21.8225095 5.79163,0 0,2.2329712 -3.20618,0 0,7.1493533 3.00653,0 0,2.233886 -3.00653,0 0,7.973328 3.20618,0 0,2.232971 z" />
        <path sodipodi:nodetypes="cccsscccsssccssssccsscscc" inkscape:connector-curvature="0" id="path3073" style="font-size:30px;font-style:normal;font-weight:bold;text-align:start;text-anchor:start;fill:black;font-family:Univers LT 49 LightUltraCn" d="m 314.41831,12.814229 0,-4.4963808 c -1e-5,-0.7653615 -0.57924,-1.1480391 -1.44214,-1.1480713 -1.01068,3.77e-5 -1.51603,0.3827098 -1.51603,1.1480713 l 0,2.7131868 c 0,0.744799 0.0254,1.466242 0.18726,1.846019 l 3.92531,3.712994 c 0.50048,0.855111 0.88003,1.81245 0.88004,2.78107 l 0,4.330336 c 0,2.274171 -1.14655,3.411255 -3.43964,3.411255 -2.33276,0 -3.64692,-1.137084 -3.64692,-3.411255 l 0,-5.114223 1.99524,0 0,4.997036 c 0,0.86365 0.83996,1.295468 1.63321,1.295471 0.86502,3e-6 1.42684,-0.454557 1.42684,-1.318207 l 0,-2.970887 c 0,-0.6549 0.0859,-1.510013 -0.33346,-2.224289 l -4.03595,-3.879956 c -0.57556,-1.008286 -0.70336,-2.618304 -0.69709,-3.511229 l 0.0185,-2.6280249 c 0.016,-2.2734536 1.2748,-3.4785273 3.52883,-3.4785493 2.25403,2.2e-5 3.51035,1.1561825 3.51035,3.3320649 l 0,4.6135683 z" />
      </g>
      <g id="text3053" style="font-size:30px;font-style:normal;font-weight:bold;text-align:start;text-anchor:start;fill:black;font-family:Univers LT 49 LightUltraCn" />
    </g>
  </g>
</svg>
